<svg xmlns="http://www.w3.org/2000/svg" version="1.1" xmlns:xlink="http://www.w3.org/1999/xlink" xmlns:svgjs="http://svgjs.com/svgjs" width="1920" height="1080" preserveAspectRatio="none" viewBox="0 0 1920 1080"><g mask="url(&quot;#SvgjsMask3537&quot;)" fill="none"><rect width="1920" height="1080" x="0" y="0" fill="url(#SvgjsLinearGradient3538)"></rect><path d="M1295.222,494.289C1371.592,492.405,1448.765,462.12,1484.346,394.519C1518.094,330.4,1489.62,256.759,1453.218,194.109C1417.049,131.859,1366.931,75.435,1295.222,69.024C1211.76,61.562,1123.199,89.289,1079.328,160.682C1033.728,234.888,1041.891,331.148,1089.211,404.269C1132.85,471.701,1214.925,496.27,1295.222,494.289" fill="rgba(0, 179, 126, 0.08)" class="triangle-float3"></path><path d="M1717.7890907677738 884.2562748926341L1668.2768187913273 1013.2401531866202 1886.5087722205296 1023.0166220042969z" fill="rgba(0, 179, 126, 0.08)" class="triangle-float3"></path><path d="M1020.001028290067 153.7199297792746L990.7758769643306 270.935609496238 1181.211972202644 256.1654966263609z" fill="rgba(0, 179, 126, 0.08)" class="triangle-float3"></path><path d="M126.027,1227.569C199.549,1226.45,259.659,1175.49,296.064,1111.604C332.062,1048.434,341.301,973.012,307.884,908.439C271.611,838.348,204.858,786.805,126.027,783.034C40.508,778.943,-48.189,814.034,-88.686,889.468C-127.587,961.929,-97.31,1047.496,-53.22,1116.922C-12.875,1180.451,50.779,1228.715,126.027,1227.569" fill="rgba(0, 179, 126, 0.08)" class="triangle-float1"></path><path d="M-205.42 104.03 a306.12 306.12 0 1 0 612.24 0 a306.12 306.12 0 1 0 -612.24 0z" fill="rgba(0, 179, 126, 0.08)" class="triangle-float2"></path><path d="M1004.19 463.18 a288.93 288.93 0 1 0 577.86 0 a288.93 288.93 0 1 0 -577.86 0z" fill="rgba(0, 179, 126, 0.08)" class="triangle-float2"></path><path d="M540.159006253324 595.1932800664281L559.920532013341 877.7962646838487 822.7619908707446 575.4317543064111z" fill="rgba(0, 179, 126, 0.08)" class="triangle-float2"></path><path d="M712.0066670703359 1156.9966715829041L799.7463519354467 830.7915495673661 513.2284207827244 902.2284931204343z" fill="rgba(0, 179, 126, 0.08)" class="triangle-float3"></path><path d="M554.2191206487004 356.85925470393994L831.0243234477412 536.9939418376902 851.1627718616744 249.00071214201972z" fill="rgba(0, 179, 126, 0.08)" class="triangle-float1"></path><path d="M1398.1265354648424 619.9028686622607L1502.0704744747313 890.6860875181217 1668.9097543207033 515.9589296523718z" fill="rgba(0, 179, 126, 0.08)" class="triangle-float1"></path><path d="M521.893,810.699C555.991,813.606,594.635,805.611,611,775.555C626.955,746.252,609.559,711.902,590.655,684.409C574.708,661.217,549.996,647.496,521.893,645.963C490.352,644.242,454.399,648.666,438.782,676.124C423.267,703.403,439.227,735.615,455.717,762.315C471.107,787.234,492.711,808.211,521.893,810.699" fill="rgba(0, 179, 126, 0.08)" class="triangle-float1"></path></g><defs><mask id="SvgjsMask3537"><rect width="1920" height="1080" fill="#ffffff"></rect></mask><linearGradient x1="10.94%" y1="-19.44%" x2="89.06%" y2="119.44%" gradientUnits="userSpaceOnUse" id="SvgjsLinearGradient3538"><stop stop-color="rgba(0, 0, 0, 1)" offset="0"></stop><stop stop-color="rgba(36, 32, 32, 1)" offset="0.57"></stop></linearGradient><style>
            @keyframes float1 {
                0%{transform: translate(0, 0)}
                50%{transform: translate(-10px, 0)}
                100%{transform: translate(0, 0)}
            }

            .triangle-float1 {
                animation: float1 5s infinite;
            }

            @keyframes float2 {
                0%{transform: translate(0, 0)}
                50%{transform: translate(-5px, -5px)}
                100%{transform: translate(0, 0)}
            }

            .triangle-float2 {
                animation: float2 4s infinite;
            }

            @keyframes float3 {
                0%{transform: translate(0, 0)}
                50%{transform: translate(0, -10px)}
                100%{transform: translate(0, 0)}
            }

            .triangle-float3 {
                animation: float3 6s infinite;
            }
        </style></defs></svg>